<?xml version="1.0" encoding="UTF-8"?>
<svg id="Layer_2" data-name="Layer 2" xmlns="http://www.w3.org/2000/svg" xmlns:xlink="http://www.w3.org/1999/xlink" viewBox="0 0 218.75 193.78">
  <defs>
    <style>
      .cls-1 {
        fill: url(#linear-gradient-2);
      }

      .cls-2 {
        fill: url(#linear-gradient-3);
      }

      .cls-3 {
        fill: url(#linear-gradient);
      }
    </style>
    <linearGradient id="linear-gradient" x1="112.98" y1="198.62" x2="154.78" y2="-38.44" gradientUnits="userSpaceOnUse">
      <stop offset=".47" stop-color="#874df8"/>
      <stop offset="1" stop-color="#1ef0b2"/>
    </linearGradient>
    <linearGradient id="linear-gradient-2" x1="99.94" y1="102.67" x2="114.31" y2="21.14" xlink:href="#linear-gradient"/>
    <linearGradient id="linear-gradient-3" x1="86.35" y1="166.11" x2="98.67" y2="96.24" xlink:href="#linear-gradient"/>
  </defs>
  <g id="Layer_2-2" data-name="Layer 2">
    <g>
      <path class="cls-3" d="M218.75,57.17c0-24.07-18.05-57.17-55.97-57.17H52.05V52.07c-2.01,1.54-3.31,3.96-3.31,6.68,0,4.65,3.77,8.43,8.43,8.43s8.43-3.77,8.43-8.43c0-2.44-1.05-4.64-2.71-6.18V10.83h97.49c19.86,0,46.94,17.45,46.94,45.74s-19.26,40.92-19.26,40.92c0,0,18.66,15.04,18.66,43.93s-28.89,42.73-43.93,42.73H62.89v-41.09c1.84-1.55,3.01-3.86,3.01-6.45,0-4.65-3.77-8.43-8.43-8.43s-8.43,3.77-8.43,8.43c0,3.12,1.7,5.83,4.21,7.29v49.88h109.53c37.91,0,55.36-28.28,55.36-51.75s-15.65-44.53-15.65-44.53c0,0,16.25-16.25,16.25-40.32Zm-161.58,5.19c-1.99,0-3.61-1.62-3.61-3.61s1.62-3.61,3.61-3.61,3.61,1.62,3.61,3.61-1.62,3.61-3.61,3.61Zm.3,70.63c1.99,0,3.61,1.62,3.61,3.61s-1.62,3.61-3.61,3.61-3.61-1.62-3.61-3.61,1.62-3.61,3.61-3.61Z"/>
      <path class="cls-1" d="M159.77,29.49H81.54V61.98h67.17c1.49,2.39,4.13,3.99,7.15,3.99,4.65,0,8.43-3.77,8.43-8.43s-3.77-8.43-8.43-8.43c-3.21,0-6,1.8-7.42,4.44h-56.07v-14.44h66.2c10.83,0,18.05,7.22,18.05,19.26s-6.02,19.26-16.85,19.26H39.81c-1.54-1.62-4.9-3.84-7.31-3.84-4.65,0-8.43,3.77-8.43,8.43s3.77,8.43,8.43,8.43c2.76,0,5.2-1.33,6.74-3.39h121.74c8.43,0,25.88-7.22,25.88-29.49s-18.66-28.28-27.08-28.28Zm-3.91,24.45c1.99,0,3.61,1.62,3.61,3.61s-1.62,3.61-3.61,3.61-3.61-1.62-3.61-3.61,1.62-3.61,3.61-3.61Zm-123.37,31.89c-1.99,0-3.61-1.62-3.61-3.61s1.62-3.61,3.61-3.61,3.61,1.62,3.61,3.61-1.62,3.61-3.61,3.61Z"/>
      <path class="cls-2" d="M186.86,136.98c0-22.27-17.45-29.49-25.88-29.49H15.16c-1.54-2.05-3.98-3.39-6.74-3.39-4.65,0-8.43,3.77-8.43,8.43s3.77,8.43,8.43,8.43c2.41,0,5.78-2.22,7.31-3.84H159.77c10.83,0,16.85,7.22,16.85,19.26s-7.22,19.26-18.05,19.26H92.37v-14.44h56.07c1.42,2.64,4.21,4.44,7.42,4.44,4.65,0,8.43-3.77,8.43-8.43s-3.77-8.43-8.43-8.43c-3.02,0-5.66,1.6-7.15,3.99H81.54v32.5h78.23c8.43,0,27.08-6.02,27.08-28.28Zm-34.6,.23c0-1.99,1.62-3.61,3.61-3.61s3.61,1.62,3.61,3.61-1.62,3.61-3.61,3.61-3.61-1.62-3.61-3.61ZM12.04,112.53c0,1.99-1.62,3.61-3.61,3.61s-3.61-1.62-3.61-3.61,1.62-3.61,3.61-3.61,3.61,1.62,3.61,3.61Z"/>
    </g>
  </g>
</svg>