<?xml version="1.0" encoding="UTF-8"?>
<svg id="Layer_2" data-name="Layer 2" xmlns="http://www.w3.org/2000/svg" xmlns:xlink="http://www.w3.org/1999/xlink" viewBox="0 0 654.17 161">
  <defs>
    <style>
      .cls-1 {
        fill: url(#linear-gradient-2);
      }

      .cls-2 {
        fill: #07173a;
        font-family: LINKSPACERegular, LINKSPACE;
        font-size: 90px;
      }

      .cls-3 {
        letter-spacing: -.03em;
      }

      .cls-4 {
        fill: url(#linear-gradient-3);
      }

      .cls-5 {
        fill: url(#linear-gradient);
      }
    </style>
    <linearGradient id="linear-gradient" x1="74.38" y1="166.73" x2="146.79" y2="-32.21" gradientUnits="userSpaceOnUse">
      <stop offset=".47" stop-color="#874df8"/>
      <stop offset="1" stop-color="#1ef0b2"/>
    </linearGradient>
    <linearGradient id="linear-gradient-2" x1="75.54" y1="93.43" x2="104.8" y2="13.01" xlink:href="#linear-gradient"/>
    <linearGradient id="linear-gradient-3" x1="66.25" y1="136.77" x2="89.75" y2="72.23" xlink:href="#linear-gradient"/>
  </defs>
  <g id="Layer_2-2" data-name="Layer 2">
    <g>
      <path class="cls-5" d="M181.75,47.5c0-20-15-47.5-46.5-47.5H43.25V43.26c-1.67,1.28-2.75,3.29-2.75,5.55,0,3.87,3.13,7,7,7s7-3.13,7-7c0-2.03-.87-3.85-2.25-5.13V9h81c16.5,0,39,14.5,39,38s-16,34-16,34c0,0,15.5,12.5,15.5,36.5s-24,35.5-36.5,35.5H52.25v-34.14c1.53-1.28,2.5-3.21,2.5-5.36,0-3.87-3.13-7-7-7s-7,3.13-7,7c0,2.59,1.41,4.85,3.5,6.06v41.44h91c31.5,0,46-23.5,46-43s-13-37-13-37c0,0,13.5-13.5,13.5-33.5Zm-134.25,4.31c-1.65,0-3-1.35-3-3s1.35-3,3-3,3,1.35,3,3-1.35,3-3,3Zm.25,58.69c1.65,0,3,1.35,3,3s-1.35,3-3,3-3-1.35-3-3,1.35-3,3-3Z"/>
      <path class="cls-1" d="M132.75,24.5H67.75v27h55.81c1.24,1.99,3.43,3.31,5.94,3.31,3.87,0,7-3.13,7-7s-3.13-7-7-7c-2.67,0-4.99,1.49-6.17,3.69h-46.58v-12h55c9,0,15,6,15,16s-5,16-14,16H33.07c-1.28-1.34-4.07-3.19-6.07-3.19-3.87,0-7,3.13-7,7s3.13,7,7,7c2.29,0,4.32-1.11,5.6-2.81h101.15c7,0,21.5-6,21.5-24.5s-15.5-23.5-22.5-23.5Zm-3.25,20.31c1.65,0,3,1.35,3,3s-1.35,3-3,3-3-1.35-3-3,1.35-3,3-3ZM27,71.31c-1.65,0-3-1.35-3-3s1.35-3,3-3,3,1.35,3,3-1.35,3-3,3Z"/>
      <path class="cls-4" d="M155.25,113.81c0-18.5-14.5-24.5-21.5-24.5H12.6c-1.28-1.7-3.31-2.81-5.6-2.81-3.87,0-7,3.13-7,7s3.13,7,7,7c2,0,4.8-1.84,6.07-3.19h119.68c9,0,14,6,14,16s-6,16-15,16h-55v-12h46.58c1.18,2.19,3.5,3.69,6.17,3.69,3.87,0,7-3.13,7-7s-3.13-7-7-7c-2.51,0-4.71,1.33-5.94,3.31h-55.81v27h65c7,0,22.5-5,22.5-23.5Zm-28.75,.19c0-1.65,1.35-3,3-3s3,1.35,3,3-1.35,3-3,3-3-1.35-3-3ZM10,93.5c0,1.65-1.35,3-3,3s-3-1.35-3-3,1.35-3,3-3,3,1.35,3,3Z"/>
    </g>
    <text class="cls-2" transform="translate(212.09 112.27)"><tspan x="0" y="0">B</tspan><tspan class="cls-3" x="55.17" y="0">r</tspan><tspan x="97.47" y="0">oadcstr</tspan></text>
  </g>
</svg>