<?xml version="1.0" encoding="UTF-8"?>
<svg id="Layer_2" data-name="Layer 2" xmlns="http://www.w3.org/2000/svg" xmlns:xlink="http://www.w3.org/1999/xlink" viewBox="0 0 653.16 161">
  <defs>
    <style>
      .cls-1 {
        fill: url(#linear-gradient-2);
      }

      .cls-2 {
        fill: url(#linear-gradient-3);
      }

      .cls-3 {
        fill: url(#linear-gradient);
      }

      .cls-4 {
        fill: #f2f2f2;
      }
    </style>
    <linearGradient id="linear-gradient" x1="74.38" y1="166.73" x2="146.79" y2="-32.21" gradientUnits="userSpaceOnUse">
      <stop offset=".47" stop-color="#874df8"/>
      <stop offset="1" stop-color="#1ef0b2"/>
    </linearGradient>
    <linearGradient id="linear-gradient-2" x1="75.54" y1="93.43" x2="104.8" y2="13.01" xlink:href="#linear-gradient"/>
    <linearGradient id="linear-gradient-3" x1="66.25" y1="136.77" x2="89.75" y2="72.23" xlink:href="#linear-gradient"/>
  </defs>
  <g id="Layer_2-2" data-name="Layer 2">
    <g>
      <path class="cls-3" d="M181.75,47.5c0-20-15-47.5-46.5-47.5H43.25V43.26c-1.67,1.28-2.75,3.29-2.75,5.55,0,3.87,3.13,7,7,7s7-3.13,7-7c0-2.03-.87-3.85-2.25-5.13V9h81c16.5,0,39,14.5,39,38s-16,34-16,34c0,0,15.5,12.5,15.5,36.5s-24,35.5-36.5,35.5H52.25v-34.14c1.53-1.28,2.5-3.21,2.5-5.36,0-3.87-3.13-7-7-7s-7,3.13-7,7c0,2.59,1.41,4.85,3.5,6.06v41.44h91c31.5,0,46-23.5,46-43s-13-37-13-37c0,0,13.5-13.5,13.5-33.5Zm-134.25,4.31c-1.65,0-3-1.35-3-3s1.35-3,3-3,3,1.35,3,3-1.35,3-3,3Zm.25,58.69c1.65,0,3,1.35,3,3s-1.35,3-3,3-3-1.35-3-3,1.35-3,3-3Z"/>
      <path class="cls-1" d="M132.75,24.5H67.75v27h55.81c1.24,1.99,3.43,3.31,5.94,3.31,3.87,0,7-3.13,7-7s-3.13-7-7-7c-2.67,0-4.99,1.49-6.17,3.69h-46.58v-12h55c9,0,15,6,15,16s-5,16-14,16H33.07c-1.28-1.34-4.07-3.19-6.07-3.19-3.87,0-7,3.13-7,7s3.13,7,7,7c2.29,0,4.32-1.11,5.6-2.81h101.15c7,0,21.5-6,21.5-24.5s-15.5-23.5-22.5-23.5Zm-3.25,20.31c1.65,0,3,1.35,3,3s-1.35,3-3,3-3-1.35-3-3,1.35-3,3-3ZM27,71.31c-1.65,0-3-1.35-3-3s1.35-3,3-3,3,1.35,3,3-1.35,3-3,3Z"/>
      <path class="cls-2" d="M155.25,113.81c0-18.5-14.5-24.5-21.5-24.5H12.6c-1.28-1.7-3.31-2.81-5.6-2.81-3.87,0-7,3.13-7,7s3.13,7,7,7c2,0,4.8-1.84,6.07-3.19h119.68c9,0,14,6,14,16s-6,16-15,16h-55v-12h46.58c1.18,2.19,3.5,3.69,6.17,3.69,3.87,0,7-3.13,7-7s-3.13-7-7-7c-2.51,0-4.71,1.33-5.94,3.31h-55.81v27h65c7,0,22.5-5,22.5-23.5Zm-28.75,.19c0-1.65,1.35-3,3-3s3,1.35,3,3-1.35,3-3,3-3-1.35-3-3ZM10,93.5c0,1.65-1.35,3-3,3s-3-1.35-3-3,1.35-3,3-3,3,1.35,3,3Z"/>
    </g>
    <g>
      <path class="cls-4" d="M262.49,94.48c0,5.29-1.64,9.53-4.88,12.6-5.11,4.84-12.58,5.24-14.92,5.24-.35,0-.58,0-.68-.01h-23.79v-1.23c0-3.22,2.61-5.82,5.82-5.82h16.04c5.62,0,9.74-1.34,12.25-3.99,2.71-2.87,2.55-6.37,2.55-6.4v-.1s0-.11,0-.11c.01-.13,.31-3.42-2.23-6.24-2.45-2.71-6.68-4.08-12.57-4.08h-1.85v-.05h-7.95v-1.23c0-3.22,2.61-5.82,5.82-5.82h3.98c5.62,0,9.74-1.34,12.25-3.99,2.71-2.87,2.55-6.37,2.55-6.4v-.1s0-.11,0-.11c.01-.13,.31-3.42-2.23-6.23-2.45-2.71-6.68-4.08-12.57-4.08h-14.8v36.87c0,3.89-3.16,7.05-7.05,7.05V49.26h23.79c.79-.04,9.88-.43,15.73,5.05,3.16,2.96,4.76,7.04,4.76,12.14s-1.64,9.53-4.88,12.6c-.64,.6-1.31,1.14-2.01,1.61,.74,.49,1.46,1.04,2.13,1.67,3.16,2.96,4.76,7.04,4.76,12.14Z"/>
      <path class="cls-4" d="M310.9,68.5l-.09,.09c-2.96,2.84-7.27,3.64-11.11,2.22-2.96-1.09-5.18-.88-5.23-.88h-.07s-.07,0-.07,0c-.08,0-6.18-.27-11.29,4.65-2.57,2.47-3.87,5.89-3.87,10.15v20.49c0,3.89-3.16,7.05-7.05,7.05v-29.56c0-.74,.15-7.99,5.78-13.69,4.39-4.45,8.43-6.71,16.79-6.71s13.01,2.73,16.2,6.2Z"/>
      <path class="cls-4" d="M357.62,87.26c0,7.59-1.86,13.61-5.53,17.94-.37,.44-.77,.87-1.18,1.27-5.71,5.63-12.95,5.78-13.69,5.78h-3.47c-.74,0-7.98-.15-13.69-5.78-.41-.4-.8-.83-1.18-1.27-3.67-4.33-5.53-10.36-5.53-17.94,0-8.6,2.45-14.24,5.67-17.94,6.01-6.92,14.65-7.04,14.78-7.04h3.38c.13,0,8.78,.12,14.78,7.04,3.21,3.7,5.67,9.34,5.67,17.94Zm-12.04-13.94c-2.43-2.59-5.83-3.94-10.1-4-4.27,.05-7.67,1.4-10.1,4-4.95,5.29-4.42,14.08-4.42,14.17v.06s0,.07,0,.07c0,.08-.27,8.6,4.64,13.71,2.42,2.51,5.74,3.81,9.87,3.87,4.13-.05,7.45-1.36,9.87-3.87,4.91-5.11,4.65-13.62,4.64-13.71v-.13c0-.09,.54-8.88-4.41-14.17Z"/>
      <path class="cls-4" d="M408.72,110.66c0,.13,.02,.25,.02,.38v1.23h-.02s-7.62,.01-7.62,.01h0s-16.15-.01-16.15-.01c-.1,0-.33,.01-.68,.01-2.34,0-9.81-.4-14.92-5.24-3.24-3.07-4.88-7.31-4.88-12.6s1.6-9.19,4.76-12.14c5.85-5.48,14.94-5.09,15.73-5.05h11.26v1.23c0,3.21-2.61,5.82-5.82,5.82h-3.5c-5.92,0-10.16,1.38-12.6,4.12-2.54,2.84-2.21,6.17-2.2,6.2v.11s0,.11,0,.11c0,.03-.16,3.53,2.55,6.4,2.5,2.65,6.62,3.99,12.25,3.99h14.21v-25.37c0-2.77-.89-5.03-2.66-6.73-4.2-4.04-12.01-3.78-12.09-3.78h-.05s-14.27,0-14.27,0v-1.23c0-3.21,2.61-5.82,5.82-5.82h8.73c8.05-.24,14.1,1.69,17.92,5.74,4.54,4.8,4.26,10.84,4.21,11.55v31.08Z"/>
      <path class="cls-4" d="M462.11,55.1v57.15h-2.3v.02h-21.53s-.03,0-.05,0c-.74,0-7.99-.15-13.69-5.78-4.45-4.39-6.71-10.86-6.71-19.22,0-24.7,20.25-24.99,20.45-24.99h11.77v1.23c0,3.21-2.61,5.82-5.82,5.82h-3.98c-4.41,0-7.9,1.35-10.38,4-4.95,5.29-4.42,14.08-4.42,14.17v.07s0,.07,0,.07c0,.08-.27,8.6,4.65,13.71,2.47,2.57,5.89,3.87,10.15,3.87h14.8V49.28h1.23c3.21,0,5.82,2.61,5.82,5.82Z"/>
      <path class="cls-4" d="M483.78,73.32c-4.95,5.29-4.42,14.08-4.42,14.17v.07s0,.07,0,.07c0,.08-.27,8.6,4.65,13.71,2.47,2.57,5.89,3.87,10.15,3.87h21.86v1.23c0,3.21-2.61,5.82-5.82,5.82h-18s-.03,0-.05,0c-.74,0-7.98-.15-13.69-5.78-4.45-4.39-6.71-10.86-6.71-19.21,0-24.7,20.25-24.99,20.45-24.99h23.83v1.23c0,3.21-2.61,5.82-5.82,5.82h-16.04c-4.41,0-7.9,1.35-10.38,4Z"/>
      <path class="cls-4" d="M566.14,98.27c0,.87-.02,1.95-.02,2.54,0,11.57-18.42,11.47-18.42,11.47h-25.83c0-3.91,3.17-7.08,7.08-7.08h15.87c15.07,0,13.76-6.35,13.77-6.73,0-.38,1.62-7.63-13.77-7.63h-4.93l-.02-.02c-2.78-.07-17.99-.95-17.99-11.46,0-.59-.02-1.67-.02-2.54,0-15.21,18.44-14.52,18.44-14.52h25.83c0,3.91-3.17,7.08-7.08,7.08h-15.87c-15.4,0-13.77,7.26-13.77,7.63,0,.38-1.3,6.73,13.77,6.73h2.19s.02,.01,.03,.02h2.29s18.44-.69,18.44,14.52Z"/>
      <path class="cls-4" d="M607.64,111.04v1.23h-8.39c-.71,.05-6.74,.32-11.55-4.21-4.05-3.83-5.99-9.87-5.74-17.92v-20.79h-5.31c-3.21,0-5.82-2.61-5.82-5.82v-1.23h11.13v-13.04c3.9,0,7.05,3.16,7.05,7.05v5.99h9.1c3.21,0,5.82,2.61,5.82,5.82v1.23h-14.93v20.56c0,.08-.28,7.86,3.77,12.08,1.7,1.77,3.96,2.66,6.74,2.66h1.73c3.53,0,6.4,2.86,6.4,6.4Z"/>
      <path class="cls-4" d="M653.16,68.5l-.09,.09c-2.96,2.84-7.27,3.64-11.11,2.22-2.96-1.09-5.18-.88-5.23-.88h-.07s-.07,0-.07,0c-.08,0-6.18-.27-11.29,4.65-2.57,2.47-3.87,5.89-3.87,10.15v20.49c0,3.89-3.16,7.05-7.05,7.05v-29.56c0-.74,.15-7.99,5.78-13.69,4.39-4.45,8.43-6.71,16.79-6.71s13.01,2.73,16.2,6.2Z"/>
    </g>
  </g>
</svg>